<svg xmlns="http://www.w3.org/2000/svg" version="1.1" xmlns:xlink="http://www.w3.org/1999/xlink" width="60" height="60" x="0" y="0" viewBox="0 0 512 512" style="enable-background:new 0 0 512 512" xml:space="preserve" class=""><g><path fill="#b7e3f6" d="M358.465 145.007a92.756 92.756 0 0 0-27.99 3.399c-6.407-48.586-47.985-86.086-98.32-86.086-54.774 0-99.184 44.41-99.184 99.184 0 .317 0 .634.011.94C93.897 165.002 63 197.517 63 237.248v1.122C63 276.273 93.727 307 131.63 307h247.58c37.903 0 68.63-30.727 68.63-68.63v-.03c.001-50.022-39.377-91.793-89.375-93.333z" opacity="1" data-original="#b7e3f6" class=""></path><path fill="#8fc3df" d="M356.531 145.459a92.558 92.558 0 0 0-25.597 3.443c-6.407-48.586-47.985-86.086-98.32-86.086-36.955 0-69.189 20.217-86.252 50.192 14.453-8.228 31.173-12.932 48.992-12.932 50.335 0 91.914 37.5 98.32 86.086a92.596 92.596 0 0 1 25.597-3.443c50.95.279 91.769 42.455 91.769 93.406 0 9.275-1.85 18.115-5.185 26.185 24.911-10.293 42.445-34.817 42.445-63.445 0-50.951-40.819-93.127-91.769-93.406z" opacity="1" data-original="#8fc3df"></path><path fill="#27bdff" d="M207.992 447.976c-11.874 0-19.597-12.497-14.285-23.117l13.963-27.915a.366.366 0 0 1 .654 0l13.954 27.919c5.309 10.62-2.413 23.113-14.286 23.113z" opacity="1" data-original="#27bdff"></path><path fill="#25b4e5" d="m222.294 424.888-13.954-27.92a.365.365 0 0 0-.654 0l-2.397 4.793 10.034 20.077c5.308 10.62-2.415 23.112-14.287 23.112-.943 0-1.86-.079-2.746-.23 2.64 2.036 5.972 3.28 9.717 3.28 11.873 0 19.595-12.493 14.287-23.112z" opacity="1" data-original="#25b4e5"></path><path fill="#27bdff" d="M303.992 447.976c-11.874 0-19.597-12.497-14.285-23.117l13.963-27.915a.366.366 0 0 1 .654 0l13.954 27.919c5.309 10.62-2.413 23.113-14.286 23.113z" opacity="1" data-original="#27bdff"></path><path fill="#25b4e5" d="m318.294 424.888-13.954-27.92a.365.365 0 0 0-.654 0l-2.397 4.793 10.034 20.077c5.308 10.62-2.415 23.112-14.287 23.112-.943 0-1.86-.079-2.746-.23 2.64 2.036 5.972 3.28 9.717 3.28 11.873 0 19.595-12.493 14.287-23.112z" opacity="1" data-original="#25b4e5"></path><path fill="#27bdff" d="M159.992 371.234c-11.874 0-19.597-12.497-14.285-23.117l13.963-27.915a.366.366 0 0 1 .654 0l13.954 27.92c5.309 10.619-2.413 23.112-14.286 23.112z" opacity="1" data-original="#27bdff"></path><path fill="#25b4e5" d="m174.294 348.146-13.954-27.92a.365.365 0 0 0-.654 0l-2.397 4.793 10.034 20.077c5.308 10.62-2.415 23.112-14.287 23.112-.943 0-1.86-.079-2.746-.23 2.64 2.036 5.972 3.28 9.717 3.28 11.873 0 19.595-12.493 14.287-23.112z" opacity="1" data-original="#25b4e5"></path><path fill="#27bdff" d="M255.992 371.234c-11.874 0-19.597-12.497-14.285-23.117l13.963-27.915a.366.366 0 0 1 .654 0l13.954 27.92c5.309 10.619-2.413 23.112-14.286 23.112z" opacity="1" data-original="#27bdff"></path><path fill="#25b4e5" d="m270.294 348.146-13.954-27.92a.365.365 0 0 0-.654 0l-2.397 4.793 10.034 20.077c5.308 10.62-2.415 23.112-14.287 23.112-.943 0-1.86-.079-2.746-.23 2.64 2.036 5.972 3.28 9.717 3.28 11.873 0 19.595-12.493 14.287-23.112z" opacity="1" data-original="#25b4e5"></path><path fill="#27bdff" d="M351.992 371.234c-11.874 0-19.597-12.497-14.285-23.117l13.963-27.915a.366.366 0 0 1 .654 0l13.954 27.92c5.309 10.619-2.413 23.112-14.286 23.112z" opacity="1" data-original="#27bdff"></path><path fill="#25b4e5" d="m366.294 348.146-13.954-27.92a.365.365 0 0 0-.654 0l-2.397 4.793 10.034 20.077c5.308 10.62-2.415 23.112-14.287 23.112-.943 0-1.86-.079-2.746-.23 2.64 2.036 5.972 3.28 9.717 3.28 11.873 0 19.595-12.493 14.287-23.112z" opacity="1" data-original="#25b4e5"></path></g></svg>